<mxfile host="Electron" modified="2023-09-28T10:18:37.093Z" agent="Mozilla/5.0 (Windows NT 10.0; Win64; x64) AppleWebKit/537.36 (KHTML, like Gecko) draw.io/21.8.2 Chrome/114.0.5735.289 Electron/25.8.1 Safari/537.36" etag="IAya0kq1ffrBpQ98Y-fp" version="21.8.2" type="device">
  <diagram name="Seite-1" id="o0na2_xddIEHQv8oEPZ-">
    <mxGraphModel dx="225" dy="398" grid="1" gridSize="2" guides="1" tooltips="1" connect="1" arrows="1" fold="1" page="1" pageScale="1" pageWidth="827" pageHeight="1169" math="1" shadow="0">
      <root>
        <mxCell id="0" />
        <mxCell id="1" parent="0" />
        <mxCell id="5iIhLcLLqSMqUuw85JXK-32" value="$$\alpha \ \text{-joint}$$" style="text;html=1;align=center;verticalAlign=middle;resizable=0;points=[];autosize=1;strokeColor=none;fillColor=none;fontColor=#000000;fontSize=10;opacity=80;textOpacity=60;" parent="1" vertex="1">
          <mxGeometry x="166.99" y="488" width="130" height="30" as="geometry" />
        </mxCell>
        <mxCell id="suuwKi-LttMpeqRWfTJR-47" value="$$\gamma$$" style="text;html=1;align=center;verticalAlign=middle;resizable=0;points=[];autosize=1;strokeColor=none;fillColor=none;rotation=0;fontSize=9;fontColor=#000000;" parent="1" vertex="1">
          <mxGeometry x="329" y="363" width="72" height="24" as="geometry" />
        </mxCell>
        <mxCell id="suuwKi-LttMpeqRWfTJR-48" value="$${\gamma}_1$$" style="text;html=1;align=center;verticalAlign=middle;resizable=0;points=[];autosize=1;strokeColor=none;fillColor=none;rotation=0;fontSize=9;fontColor=#000000;" parent="1" vertex="1">
          <mxGeometry x="303" y="367.31" width="88" height="24" as="geometry" />
        </mxCell>
        <mxCell id="5iIhLcLLqSMqUuw85JXK-27" value="(x,y,z)" style="text;html=1;align=center;verticalAlign=middle;resizable=0;points=[];autosize=1;strokeColor=none;fillColor=none;fontColor=#000000;" parent="1" vertex="1">
          <mxGeometry x="412" y="528" width="60" height="30" as="geometry" />
        </mxCell>
        <mxCell id="suuwKi-LttMpeqRWfTJR-18" value="$$l_{\text{femur}}$$" style="text;html=1;align=center;verticalAlign=middle;resizable=0;points=[];autosize=1;strokeColor=none;fillColor=none;rotation=-50;fontColor=#000000;fontSize=9;" parent="1" vertex="1">
          <mxGeometry x="241" y="391" width="98" height="24" as="geometry" />
        </mxCell>
        <mxCell id="suuwKi-LttMpeqRWfTJR-21" value="$$l_{\text{tibia}}$$" style="text;html=1;align=center;verticalAlign=middle;resizable=0;points=[];autosize=1;strokeColor=none;fillColor=none;rotation=70;fontColor=#000000;fontSize=9;" parent="1" vertex="1">
          <mxGeometry x="392" y="412" width="92" height="24" as="geometry" />
        </mxCell>
        <mxCell id="suuwKi-LttMpeqRWfTJR-28" value="$$\text{BF}$$" style="text;html=1;align=center;verticalAlign=middle;resizable=0;points=[];autosize=1;strokeColor=none;fillColor=none;rotation=23;fontSize=9;fontColor=#000000;" parent="1" vertex="1">
          <mxGeometry x="309" y="491" width="74" height="24" as="geometry" />
        </mxCell>
        <mxCell id="suuwKi-LttMpeqRWfTJR-42" value="$$\beta$$" style="text;html=1;align=center;verticalAlign=middle;resizable=0;points=[];autosize=1;strokeColor=none;fillColor=none;rotation=0;fontSize=9;fontColor=#000000;" parent="1" vertex="1">
          <mxGeometry x="265" y="443.5" width="60" height="24" as="geometry" />
        </mxCell>
        <mxCell id="suuwKi-LttMpeqRWfTJR-43" value="$$\beta_1$$" style="text;html=1;align=center;verticalAlign=middle;resizable=0;points=[];autosize=1;strokeColor=none;fillColor=none;rotation=0;fontSize=9;fontColor=#000000;" parent="1" vertex="1">
          <mxGeometry x="244" y="449.5" width="70" height="24" as="geometry" />
        </mxCell>
        <mxCell id="suuwKi-LttMpeqRWfTJR-46" value="$$\beta_2$$" style="text;html=1;align=center;verticalAlign=middle;resizable=0;points=[];autosize=1;strokeColor=none;fillColor=none;rotation=0;fontSize=9;fontColor=#000000;" parent="1" vertex="1">
          <mxGeometry x="230.8" y="472" width="70" height="24" as="geometry" />
        </mxCell>
        <mxCell id="suuwKi-LttMpeqRWfTJR-31" value="y" style="endArrow=none;dashed=1;html=1;dashPattern=1 2;strokeWidth=1;rounded=0;verticalAlign=bottom;horizontal=1;labelBackgroundColor=none;strokeColor=#000000;fontColor=#000000;" parent="1" edge="1">
          <mxGeometry x="0.0008" y="4" width="50" height="50" relative="1" as="geometry">
            <mxPoint x="352.00468055073" y="358.99634601896906" as="sourcePoint" />
            <mxPoint x="414" y="408" as="targetPoint" />
            <mxPoint as="offset" />
            <Array as="points" />
          </mxGeometry>
        </mxCell>
        <mxCell id="suuwKi-LttMpeqRWfTJR-29" value="" style="endArrow=none;dashed=1;html=1;dashPattern=1 2;strokeWidth=1;rounded=0;verticalAlign=bottom;horizontal=1;labelBackgroundColor=none;strokeColor=#000000;fontColor=#000000;textOpacity=60;opacity=60;" parent="1" source="suuwKi-LttMpeqRWfTJR-33" edge="1">
          <mxGeometry x="0.0008" y="4" width="50" height="50" relative="1" as="geometry">
            <mxPoint x="366" y="364" as="sourcePoint" />
            <mxPoint x="398" y="342" as="targetPoint" />
            <mxPoint as="offset" />
          </mxGeometry>
        </mxCell>
        <mxCell id="suuwKi-LttMpeqRWfTJR-30" value="" style="endArrow=none;dashed=1;html=1;dashPattern=1 2;strokeWidth=1;rounded=0;verticalAlign=bottom;horizontal=1;labelBackgroundColor=none;strokeColor=#000000;fontColor=#000000;exitX=0.6;exitY=0.469;exitDx=0;exitDy=0;exitPerimeter=0;textOpacity=60;opacity=60;" parent="1" edge="1">
          <mxGeometry x="0.0008" y="4" width="50" height="50" relative="1" as="geometry">
            <mxPoint x="416" y="540" as="sourcePoint" />
            <mxPoint x="462" y="522" as="targetPoint" />
            <mxPoint as="offset" />
          </mxGeometry>
        </mxCell>
        <mxCell id="suuwKi-LttMpeqRWfTJR-27" value="" style="endArrow=none;dashed=1;html=1;dashPattern=1 2;strokeWidth=1;rounded=0;exitX=1;exitY=1;exitDx=0;exitDy=0;entryX=0.501;entryY=0.569;entryDx=0;entryDy=0;verticalAlign=bottom;horizontal=1;labelBackgroundColor=none;strokeColor=#000000;fontColor=#000000;entryPerimeter=0;" parent="1" source="suuwKi-LttMpeqRWfTJR-3" target="5iIhLcLLqSMqUuw85JXK-11" edge="1">
          <mxGeometry x="0.0008" y="4" width="50" height="50" relative="1" as="geometry">
            <mxPoint x="203" y="541" as="sourcePoint" />
            <mxPoint x="417" y="542" as="targetPoint" />
            <mxPoint as="offset" />
          </mxGeometry>
        </mxCell>
        <mxCell id="suuwKi-LttMpeqRWfTJR-11" value="" style="endArrow=none;dashed=1;html=1;dashPattern=1 2;strokeWidth=1;rounded=0;startArrow=none;startFill=0;endFill=0;verticalAlign=middle;horizontal=1;align=left;labelBackgroundColor=none;strokeColor=#000000;fontColor=#000000;" parent="1" edge="1">
          <mxGeometry x="0.0588" y="8" width="50" height="50" relative="1" as="geometry">
            <mxPoint x="258" y="570" as="sourcePoint" />
            <mxPoint x="258" y="468" as="targetPoint" />
            <mxPoint as="offset" />
          </mxGeometry>
        </mxCell>
        <mxCell id="suuwKi-LttMpeqRWfTJR-8" value="y" style="endArrow=none;dashed=1;html=1;dashPattern=1 2;strokeWidth=1;rounded=0;verticalAlign=bottom;horizontal=1;labelBackgroundColor=none;strokeColor=#000000;fontColor=#000000;exitX=0;exitY=1;exitDx=0;exitDy=0;" parent="1" edge="1">
          <mxGeometry x="0.0008" y="4" width="50" height="50" relative="1" as="geometry">
            <mxPoint x="347.8044660940674" y="363.3055339059326" as="sourcePoint" />
            <mxPoint x="391" y="310.91" as="targetPoint" />
            <mxPoint as="offset" />
          </mxGeometry>
        </mxCell>
        <mxCell id="5iIhLcLLqSMqUuw85JXK-2" value="" style="rounded=0;whiteSpace=wrap;html=1;rotation=0;strokeWidth=2;fillColor=#000000;strokeColor=#000000;" parent="1" vertex="1">
          <mxGeometry x="196.99" y="467.5" width="60.01" height="5" as="geometry" />
        </mxCell>
        <mxCell id="5iIhLcLLqSMqUuw85JXK-4" value="" style="rounded=0;whiteSpace=wrap;html=1;rotation=-50;strokeWidth=2;fillColor=#000000;strokeColor=#000000;" parent="1" vertex="1">
          <mxGeometry x="230.8" y="413" width="145.84" height="5" as="geometry" />
        </mxCell>
        <mxCell id="5iIhLcLLqSMqUuw85JXK-17" value="" style="endArrow=none;dashed=1;html=1;dashPattern=1 2;strokeWidth=1;rounded=0;entryX=1;entryY=0.75;entryDx=0;entryDy=0;verticalAlign=bottom;horizontal=1;labelBackgroundColor=none;strokeColor=#000000;fontColor=#000000;startArrow=none;startFill=0;" parent="1" target="5iIhLcLLqSMqUuw85JXK-5" edge="1">
          <mxGeometry x="0.0008" y="4" width="50" height="50" relative="1" as="geometry">
            <mxPoint x="200" y="539" as="sourcePoint" />
            <mxPoint x="564.6996448321731" y="540.0274999999999" as="targetPoint" />
            <mxPoint as="offset" />
          </mxGeometry>
        </mxCell>
        <mxCell id="5iIhLcLLqSMqUuw85JXK-19" value="" style="endArrow=classic;dashed=1;html=1;strokeWidth=2;rounded=0;startArrow=none;startFill=0;endFill=1;labelBackgroundColor=none;fontColor=#000000;strokeColor=#000000;exitX=1;exitY=0.5;exitDx=0;exitDy=0;" parent="1" source="5iIhLcLLqSMqUuw85JXK-2" edge="1">
          <mxGeometry x="0.8479" y="-8" width="50" height="50" relative="1" as="geometry">
            <mxPoint x="216.99" y="475.00000000000006" as="sourcePoint" />
            <mxPoint x="492" y="470" as="targetPoint" />
            <mxPoint as="offset" />
          </mxGeometry>
        </mxCell>
        <mxCell id="5iIhLcLLqSMqUuw85JXK-20" value="" style="endArrow=none;dashed=1;html=1;dashPattern=1 2;strokeWidth=1;rounded=0;startArrow=none;startFill=0;endFill=0;verticalAlign=middle;horizontal=1;align=left;labelBackgroundColor=none;strokeColor=#000000;fontColor=#000000;exitX=0.326;exitY=0.247;exitDx=0;exitDy=0;exitPerimeter=0;" parent="1" source="5iIhLcLLqSMqUuw85JXK-11" edge="1">
          <mxGeometry x="-0.1067" y="-3" width="50" height="50" relative="1" as="geometry">
            <mxPoint x="417" y="540" as="sourcePoint" />
            <mxPoint x="417" y="470" as="targetPoint" />
            <mxPoint as="offset" />
          </mxGeometry>
        </mxCell>
        <mxCell id="5iIhLcLLqSMqUuw85JXK-21" value="z" style="endArrow=classic;dashed=1;html=1;strokeWidth=2;rounded=0;startArrow=none;startFill=0;endFill=1;labelBackgroundColor=none;fontColor=#000000;strokeColor=#000000;align=center;" parent="1" edge="1">
          <mxGeometry x="-0.5727" y="8" width="50" height="50" relative="1" as="geometry">
            <mxPoint x="198" y="606" as="sourcePoint" />
            <mxPoint x="200" y="288" as="targetPoint" />
            <mxPoint as="offset" />
          </mxGeometry>
        </mxCell>
        <mxCell id="5iIhLcLLqSMqUuw85JXK-24" value="" style="ellipse;whiteSpace=wrap;html=1;aspect=fixed;" parent="1" vertex="1">
          <mxGeometry as="geometry" />
        </mxCell>
        <mxCell id="5iIhLcLLqSMqUuw85JXK-31" value="" style="endArrow=none;html=1;rounded=0;fillColor=#0050ef;strokeColor=#000000;opacity=60;exitX=0.5;exitY=0.567;exitDx=0;exitDy=0;exitPerimeter=0;" parent="1" edge="1">
          <mxGeometry width="50" height="50" relative="1" as="geometry">
            <mxPoint x="230.99" y="406.01" as="sourcePoint" />
            <mxPoint x="249" y="452" as="targetPoint" />
          </mxGeometry>
        </mxCell>
        <mxCell id="5iIhLcLLqSMqUuw85JXK-40" value="" style="shape=cylinder3;whiteSpace=wrap;html=1;boundedLbl=1;backgroundOutline=1;size=0;rotation=-180;strokeColor=#000000;fillColor=#E6E6E6;" parent="1" vertex="1">
          <mxGeometry x="194.98" y="463" width="10.01" height="14" as="geometry" />
        </mxCell>
        <mxCell id="5iIhLcLLqSMqUuw85JXK-41" value="" style="endArrow=none;html=1;rounded=0;fillColor=#0050ef;strokeColor=#000000;opacity=60;" parent="1" edge="1">
          <mxGeometry width="50" height="50" relative="1" as="geometry">
            <mxPoint x="213" y="501" as="sourcePoint" />
            <mxPoint x="203" y="479" as="targetPoint" />
          </mxGeometry>
        </mxCell>
        <mxCell id="5iIhLcLLqSMqUuw85JXK-42" value="$$\beta \ \text{-joint}$$" style="text;html=1;align=center;verticalAlign=middle;resizable=0;points=[];autosize=1;strokeColor=none;fillColor=none;fontColor=#000000;fontSize=10;opacity=80;textOpacity=60;" parent="1" vertex="1">
          <mxGeometry x="161.99" y="383" width="120" height="30" as="geometry" />
        </mxCell>
        <mxCell id="5iIhLcLLqSMqUuw85JXK-43" value="" style="endArrow=none;html=1;rounded=0;fillColor=#0050ef;strokeColor=#000000;opacity=60;" parent="1" edge="1">
          <mxGeometry width="50" height="50" relative="1" as="geometry">
            <mxPoint x="307" y="323.63" as="sourcePoint" />
            <mxPoint x="342.99999999999994" y="352.31" as="targetPoint" />
          </mxGeometry>
        </mxCell>
        <mxCell id="5iIhLcLLqSMqUuw85JXK-44" value="$$\gamma \ \text{-joint}$$" style="text;html=1;align=center;verticalAlign=middle;resizable=0;points=[];autosize=1;strokeColor=none;fillColor=none;fontColor=#000000;fontSize=10;opacity=80;textOpacity=60;" parent="1" vertex="1">
          <mxGeometry x="214.99999999999994" y="304.56" width="140" height="30" as="geometry" />
        </mxCell>
        <mxCell id="suuwKi-LttMpeqRWfTJR-3" value="" style="ellipse;whiteSpace=wrap;html=1;aspect=fixed;strokeWidth=2;fillColor=#E6E6E6;strokeColor=#000000;" parent="1" vertex="1">
          <mxGeometry x="253" y="464.5" width="10" height="10" as="geometry" />
        </mxCell>
        <mxCell id="suuwKi-LttMpeqRWfTJR-13" value="$$l_{\text{coxa}}$$" style="endArrow=baseDash;html=1;rounded=0;startArrow=baseDash;startFill=0;endFill=0;labelBackgroundColor=none;endSize=2;startSize=2;fontColor=#000000;fontSize=9;strokeColor=#000000;" parent="1" edge="1">
          <mxGeometry x="-0.0204" y="9" width="50" height="50" relative="1" as="geometry">
            <mxPoint x="204" y="459" as="sourcePoint" />
            <mxPoint x="253" y="459" as="targetPoint" />
            <mxPoint as="offset" />
          </mxGeometry>
        </mxCell>
        <mxCell id="suuwKi-LttMpeqRWfTJR-17" value="" style="endArrow=baseDash;html=1;rounded=0;startArrow=baseDash;startFill=0;endFill=0;labelBackgroundColor=none;endSize=2;startSize=2;strokeColor=#000000;" parent="1" edge="1">
          <mxGeometry x="0.1066" y="9" width="50" height="50" relative="1" as="geometry">
            <mxPoint x="256" y="458" as="sourcePoint" />
            <mxPoint x="342" y="356" as="targetPoint" />
            <mxPoint as="offset" />
          </mxGeometry>
        </mxCell>
        <mxCell id="suuwKi-LttMpeqRWfTJR-20" value="" style="endArrow=baseDash;html=1;rounded=0;startArrow=baseDash;startFill=0;endFill=0;labelBackgroundColor=none;endSize=2;startSize=2;strokeColor=#000000;" parent="1" edge="1">
          <mxGeometry x="0.1066" y="9" width="50" height="50" relative="1" as="geometry">
            <mxPoint x="398" y="342" as="sourcePoint" />
            <mxPoint x="462" y="522" as="targetPoint" />
            <mxPoint as="offset" />
          </mxGeometry>
        </mxCell>
        <mxCell id="suuwKi-LttMpeqRWfTJR-22" value="" style="endArrow=none;html=1;curved=1;strokeColor=#000000;" parent="1" edge="1">
          <mxGeometry width="50" height="50" relative="1" as="geometry">
            <mxPoint x="258" y="529" as="sourcePoint" />
            <mxPoint x="268" y="539" as="targetPoint" />
            <Array as="points">
              <mxPoint x="268" y="529" />
            </Array>
          </mxGeometry>
        </mxCell>
        <mxCell id="suuwKi-LttMpeqRWfTJR-23" value="" style="ellipse;whiteSpace=wrap;html=1;aspect=fixed;fillColor=#FFFFFF;strokeColor=#000000;" parent="1" vertex="1">
          <mxGeometry x="262" y="534" width="1" height="1" as="geometry" />
        </mxCell>
        <mxCell id="suuwKi-LttMpeqRWfTJR-25" value="" style="endArrow=none;html=1;curved=1;entryX=0.904;entryY=-0.018;entryDx=0;entryDy=0;entryPerimeter=0;strokeColor=#000000;" parent="1" edge="1">
          <mxGeometry width="50" height="50" relative="1" as="geometry">
            <mxPoint x="417" y="479.5" as="sourcePoint" />
            <mxPoint x="426.647733768693" y="469.9970948217153" as="targetPoint" />
            <Array as="points">
              <mxPoint x="426.99" y="479.92" />
            </Array>
          </mxGeometry>
        </mxCell>
        <mxCell id="suuwKi-LttMpeqRWfTJR-26" value="" style="ellipse;whiteSpace=wrap;html=1;aspect=fixed;fillColor=#FFFFFF;strokeColor=#000000;" parent="1" vertex="1">
          <mxGeometry x="420" y="473.5" width="1" height="1" as="geometry" />
        </mxCell>
        <mxCell id="suuwKi-LttMpeqRWfTJR-32" value="" style="endArrow=none;html=1;curved=1;strokeColor=#000000;" parent="1" edge="1">
          <mxGeometry width="50" height="50" relative="1" as="geometry">
            <mxPoint x="360" y="364" as="sourcePoint" />
            <mxPoint x="358" y="350" as="targetPoint" />
            <Array as="points">
              <mxPoint x="366" y="356" />
            </Array>
          </mxGeometry>
        </mxCell>
        <mxCell id="suuwKi-LttMpeqRWfTJR-40" value="" style="endArrow=none;html=1;curved=1;strokeColor=#000000;entryX=0.3;entryY=1.22;entryDx=0;entryDy=0;entryPerimeter=0;" parent="1" target="5iIhLcLLqSMqUuw85JXK-4" edge="1">
          <mxGeometry width="50" height="50" relative="1" as="geometry">
            <mxPoint x="306" y="470" as="sourcePoint" />
            <mxPoint x="294" y="448" as="targetPoint" />
            <Array as="points">
              <mxPoint x="306" y="448" />
            </Array>
          </mxGeometry>
        </mxCell>
        <mxCell id="suuwKi-LttMpeqRWfTJR-41" value="" style="endArrow=none;html=1;curved=1;strokeColor=#000000;entryX=0.184;entryY=1.152;entryDx=0;entryDy=0;entryPerimeter=0;" parent="1" edge="1">
          <mxGeometry width="50" height="50" relative="1" as="geometry">
            <mxPoint x="294" y="487" as="sourcePoint" />
            <mxPoint x="276.5941550656154" y="451.8989828282712" as="targetPoint" />
            <Array as="points">
              <mxPoint x="296" y="461.5" />
            </Array>
          </mxGeometry>
        </mxCell>
        <mxCell id="suuwKi-LttMpeqRWfTJR-45" value="" style="endArrow=none;html=1;curved=1;strokeColor=#000000;exitX=0.365;exitY=1.009;exitDx=0;exitDy=0;exitPerimeter=0;" parent="1" edge="1">
          <mxGeometry width="50" height="50" relative="1" as="geometry">
            <mxPoint x="278.55000000000007" y="479.996" as="sourcePoint" />
            <mxPoint x="258" y="496" as="targetPoint" />
            <Array as="points">
              <mxPoint x="274" y="494" />
            </Array>
          </mxGeometry>
        </mxCell>
        <mxCell id="suuwKi-LttMpeqRWfTJR-49" value="" style="endArrow=none;html=1;curved=1;strokeColor=#000000;entryX=0.824;entryY=1.065;entryDx=0;entryDy=0;entryPerimeter=0;exitX=0.132;exitY=0.947;exitDx=0;exitDy=0;exitPerimeter=0;" parent="1" edge="1">
          <mxGeometry width="50" height="50" relative="1" as="geometry">
            <mxPoint x="357.6798751584689" y="387.185300090533" as="sourcePoint" />
            <mxPoint x="336.257178530737" y="382.1186204039956" as="targetPoint" />
            <Array as="points">
              <mxPoint x="346" y="391" />
            </Array>
          </mxGeometry>
        </mxCell>
        <mxCell id="suuwKi-LttMpeqRWfTJR-51" value="" style="endArrow=none;dashed=1;html=1;dashPattern=1 2;strokeWidth=1;rounded=0;verticalAlign=bottom;horizontal=1;labelBackgroundColor=none;strokeColor=#FFFFFF;fontColor=#000000;textOpacity=60;opacity=60;" parent="1" source="5iIhLcLLqSMqUuw85JXK-7" target="suuwKi-LttMpeqRWfTJR-33" edge="1">
          <mxGeometry x="0.0008" y="4" width="50" height="50" relative="1" as="geometry">
            <mxPoint x="356" y="358" as="sourcePoint" />
            <mxPoint x="398" y="342" as="targetPoint" />
            <mxPoint as="offset" />
          </mxGeometry>
        </mxCell>
        <mxCell id="suuwKi-LttMpeqRWfTJR-33" value="" style="ellipse;whiteSpace=wrap;html=1;aspect=fixed;fillColor=#FFFFFF;strokeColor=#000000;" parent="1" vertex="1">
          <mxGeometry x="358" y="357" width="1" height="1" as="geometry" />
        </mxCell>
        <mxCell id="suuwKi-LttMpeqRWfTJR-53" value="" style="endArrow=none;html=1;curved=1;strokeColor=#000000;" parent="1" edge="1">
          <mxGeometry width="50" height="50" relative="1" as="geometry">
            <mxPoint x="373" y="375" as="sourcePoint" />
            <mxPoint x="363" y="385" as="targetPoint" />
            <Array as="points">
              <mxPoint x="371" y="381" />
            </Array>
          </mxGeometry>
        </mxCell>
        <mxCell id="suuwKi-LttMpeqRWfTJR-54" value="$$y$$" style="endArrow=baseDash;html=1;rounded=0;startArrow=baseDash;startFill=0;endFill=0;labelBackgroundColor=none;endSize=2;startSize=2;fontColor=#000000;fontSize=9;strokeColor=#000000;" parent="1" edge="1">
          <mxGeometry y="-6" width="50" height="50" relative="1" as="geometry">
            <mxPoint x="200" y="592" as="sourcePoint" />
            <mxPoint x="416" y="592" as="targetPoint" />
            <mxPoint as="offset" />
          </mxGeometry>
        </mxCell>
        <mxCell id="suuwKi-LttMpeqRWfTJR-55" value="$$y-l_{\text{coxa}}$$" style="endArrow=baseDash;html=1;rounded=0;startArrow=baseDash;startFill=0;endFill=0;labelBackgroundColor=none;endSize=2;startSize=2;fontColor=#000000;fontSize=9;strokeColor=#000000;" parent="1" edge="1">
          <mxGeometry x="0.0127" y="-6" width="50" height="50" relative="1" as="geometry">
            <mxPoint x="258" y="572" as="sourcePoint" />
            <mxPoint x="416" y="572" as="targetPoint" />
            <mxPoint as="offset" />
          </mxGeometry>
        </mxCell>
        <mxCell id="suuwKi-LttMpeqRWfTJR-56" value="" style="endArrow=none;dashed=1;html=1;dashPattern=1 2;strokeWidth=1;rounded=0;startArrow=none;startFill=0;endFill=0;verticalAlign=middle;horizontal=1;align=left;labelBackgroundColor=none;strokeColor=#000000;fontColor=#000000;" parent="1" edge="1">
          <mxGeometry x="0.0469" y="-3" width="50" height="50" relative="1" as="geometry">
            <mxPoint x="416" y="572" as="sourcePoint" />
            <mxPoint x="416" y="540" as="targetPoint" />
            <mxPoint as="offset" />
          </mxGeometry>
        </mxCell>
        <mxCell id="5iIhLcLLqSMqUuw85JXK-5" value="" style="rounded=0;whiteSpace=wrap;html=1;rotation=70;strokeWidth=2;fillColor=#000000;strokeColor=#000000;" parent="1" vertex="1">
          <mxGeometry x="288.32" y="446.97" width="191" height="5" as="geometry" />
        </mxCell>
        <mxCell id="5iIhLcLLqSMqUuw85JXK-7" value="" style="ellipse;whiteSpace=wrap;html=1;aspect=fixed;strokeWidth=2;fillColor=#E6E6E6;strokeColor=#000000;" parent="1" vertex="1">
          <mxGeometry x="346" y="355.31" width="10" height="10" as="geometry" />
        </mxCell>
        <mxCell id="5iIhLcLLqSMqUuw85JXK-11" value="" style="shape=cross;whiteSpace=wrap;html=1;rotation=45;size=0.12435145224430226;fillColor=#FF0000;strokeColor=#FF0000;fontColor=#ffffff;strokeWidth=0;" parent="1" vertex="1">
          <mxGeometry x="410" y="532.5" width="13" height="13" as="geometry" />
        </mxCell>
        <mxCell id="_vSJpsMfJPOvW9EZ92VR-2" value="" style="endArrow=classic;html=1;curved=1;strokeWidth=1;endSize=2;strokeColor=#FF0000;targetPerimeterSpacing=0;endFill=1;opacity=30;shadow=0;dashed=1;dashPattern=1 1;" parent="1" edge="1">
          <mxGeometry width="50" height="50" relative="1" as="geometry">
            <mxPoint x="403" y="406" as="sourcePoint" />
            <mxPoint x="383" y="428" as="targetPoint" />
            <Array as="points">
              <mxPoint x="396" y="418" />
            </Array>
          </mxGeometry>
        </mxCell>
        <mxCell id="_vSJpsMfJPOvW9EZ92VR-3" value="" style="endArrow=classic;html=1;curved=1;strokeWidth=1;endSize=2;dashed=1;dashPattern=1 1;strokeColor=#FF0000;opacity=30;" parent="1" edge="1">
          <mxGeometry width="50" height="50" relative="1" as="geometry">
            <mxPoint x="302" y="428" as="sourcePoint" />
            <mxPoint x="323" y="466" as="targetPoint" />
            <Array as="points">
              <mxPoint x="322" y="442" />
            </Array>
          </mxGeometry>
        </mxCell>
      </root>
    </mxGraphModel>
  </diagram>
</mxfile>
